<?xml version="1.0" encoding="UTF-8"?>
<svg version="1.1" xmlns="http://www.w3.org/2000/svg" width="1254" height="1254">
<path d="M0 0 C413.82 0 827.64 0 1254 0 C1254 413.82 1254 827.64 1254 1254 C840.18 1254 426.36 1254 0 1254 C0 840.18 0 426.36 0 0 Z " fill="#000000" transform="translate(0,0)"/>
<path d="M0 0 C6.6 0 13.2 0 20 0 C20 89.43 20 178.86 20 271 C23.63 271.66 27.26 272.32 31 273 C50.02718354 278.94599486 64.61792063 291.77390628 73.88671875 309.25024414 C78.26146096 317.81398661 81.42075897 326.34598279 82 336 C82.08765625 337.0209375 82.1753125 338.041875 82.265625 339.09375 C83.23213428 359.30258041 75.13106662 377.98938855 62 393 C61.44570313 393.63808594 60.89140625 394.27617188 60.3203125 394.93359375 C55.57935707 400.02615113 49.94442325 403.45807768 44 407 C43.36964844 407.40347656 42.73929688 407.80695313 42.08984375 408.22265625 C34.95563987 412.6583433 28.3189063 414 20 414 C20 541.38 20 668.76 20 800 C15.99007154 797.99503577 13.20198991 795.6020127 10 792.5625 C6.16808403 788.83393405 6.16808403 788.83393405 1.85107446 785.71991652 C0 784 0 784 -0.49679399 781.25495368 C-0.4952751 780.13212067 -0.49375622 779.00928765 -0.49219131 777.85242939 C-0.50015551 776.55759988 -0.5081197 775.26277037 -0.51632524 773.92870361 C-0.50491222 772.48333475 -0.49312981 771.03796876 -0.48101807 769.59260559 C-0.48276132 768.06383739 -0.48626169 766.53507034 -0.49137473 765.00630969 C-0.50034705 760.79435342 -0.48428041 756.58280163 -0.46426249 752.37089694 C-0.44703416 747.83307482 -0.4528309 743.29527664 -0.45587158 738.75743103 C-0.45797188 730.89167156 -0.44539174 723.02604453 -0.42292023 715.16031837 C-0.39045111 703.78773549 -0.37999843 692.41521682 -0.37496826 681.04259261 C-0.36620761 662.59256773 -0.33957115 644.14261347 -0.30175781 625.69262695 C-0.26505764 607.76717483 -0.23673613 589.84174186 -0.21972656 571.91625977 C-0.21867567 570.81185957 -0.21762477 569.70745938 -0.21654204 568.56959251 C-0.21132199 563.02929817 -0.20626714 557.4890037 -0.20129442 551.94870913 C-0.15980841 505.96575716 -0.08933903 459.98288222 0 414 C-1.08571289 414.01748291 -2.17142578 414.03496582 -3.29003906 414.05297852 C-18.24769547 413.83938208 -31.9344703 403.166185 -42 393 C-55.79985265 378.2501575 -62.73079964 359.0156112 -62.3125 339.03125 C-61.55705741 322.63814585 -55.59188838 308.49065022 -45 296 C-44.22914063 295.02804687 -43.45828125 294.05609375 -42.6640625 293.0546875 C-33.17508681 281.69794394 -18.41972308 273.70369808 -4 271 C-2.68 271 -1.36 271 0 271 C0 244.6 0 218.2 0 191 C-15.10293942 192.57877271 -15.10293942 192.57877271 -29.6875 195.75 C-30.66025879 196.01385498 -31.63301758 196.27770996 -32.63525391 196.54956055 C-57.97739375 203.61470558 -79.76041451 216.3824536 -98.57177734 234.62304688 C-99.83919726 235.84496967 -101.13086299 237.04163226 -102.42578125 238.234375 C-118.64083721 253.55659484 -129.97543709 274.4687339 -137.4375 295.25 C-137.72431641 296.013125 -138.01113281 296.77625 -138.30664062 297.5625 C-143.76531022 312.83218598 -145.7329557 328.11532798 -145.5625 344.25 C-145.55760559 345.5152803 -145.55760559 345.5152803 -145.5526123 346.80612183 C-145.47446809 360.71858314 -143.99274618 373.62301047 -140 387 C-139.59000111 388.46155541 -139.18233051 389.92376659 -138.77734375 391.38671875 C-138.11648941 393.75535681 -137.42448859 396.10244805 -136.69921875 398.453125 C-136 401 -136 401 -136 404 C-135.34 404 -134.68 404 -134 404 C-133.77070801 404.60803467 -133.54141602 405.21606934 -133.30517578 405.8425293 C-127.48770557 420.87075365 -119.40576378 434.7009022 -109 447 C-108.50822266 447.59039063 -108.01644531 448.18078125 -107.50976562 448.7890625 C-90.71771122 468.93110015 -71.70792665 483.63470209 -48 495 C-47.24759033 495.36174316 -46.49518066 495.72348633 -45.7199707 496.09619141 C-40.16325663 498.67135836 -34.99259998 500.20222001 -29 502 C-29 530.38 -29 558.76 -29 588 C-35.75327251 583.49781833 -35.75327251 583.49781833 -38.61328125 581.23828125 C-39.5249707 580.51995117 -39.5249707 580.51995117 -40.45507812 579.78710938 C-41.06802734 579.30048828 -41.68097656 578.81386719 -42.3125 578.3125 C-42.94478516 577.81427734 -43.57707031 577.31605469 -44.22851562 576.80273438 C-48.83996333 573.16003667 -48.83996333 573.16003667 -50 572 C-50.09353163 570.31198015 -50.11744791 568.62004793 -50.11352539 566.92944336 C-50.11344986 565.84839828 -50.11337433 564.76735321 -50.11329651 563.65354919 C-50.10813522 562.4775264 -50.10297394 561.3015036 -50.09765625 560.08984375 C-50.09553383 558.29408653 -50.09553383 558.29408653 -50.09336853 556.46205139 C-50.08774979 552.62050934 -50.07519411 548.77902457 -50.0625 544.9375 C-50.05748741 542.34049563 -50.05292409 539.74349035 -50.04882812 537.14648438 C-50.03777427 530.76430321 -50.02101792 524.3821557 -50 518 C-51.58663452 517.81800049 -51.58663452 517.81800049 -53.20532227 517.63232422 C-56.55463257 517.07421358 -58.74843763 516.42582084 -61.71484375 514.8828125 C-62.55789063 514.44646484 -63.4009375 514.01011719 -64.26953125 513.56054688 C-65.14996094 513.08681641 -66.03039062 512.61308594 -66.9375 512.125 C-67.86046875 511.63322266 -68.7834375 511.14144531 -69.734375 510.63476562 C-94.96686907 496.93662742 -117.25295515 477.33944995 -134 454 C-134.43006348 453.40364746 -134.86012695 452.80729492 -135.30322266 452.19287109 C-144.88776356 438.75022204 -151.7425306 424.23246837 -158 409 C-158.43054688 408.02546875 -158.86109375 407.0509375 -159.3046875 406.046875 C-166.48500475 389.01034587 -169 370.31947865 -169 352 C-213.88 352 -258.76 352 -305 352 C-305 345.07 -305 338.14 -305 331 C-260.12 331 -215.24 331 -169 331 C-168.67 326.38 -168.34 321.76 -168 317 C-167.51099158 313.86031517 -166.99782304 310.83862397 -166.3125 307.75 C-166.13807373 306.95335937 -165.96364746 306.15671875 -165.78393555 305.3359375 C-155.66660623 261.00324266 -128.17082783 223.58073116 -91 198 C-90.38705078 197.57332031 -89.77410156 197.14664063 -89.14257812 196.70703125 C-63.7285001 179.22644848 -30.97909064 168 0 168 C0 112.56 0 57.12 0 0 Z " fill="#B2B4B7" transform="translate(617,271)"/>
<path d="M0 0 C12.65922353 0 23.71310742 2.54687273 35.875 5.875 C37.13441406 6.21402344 38.39382813 6.55304688 39.69140625 6.90234375 C67.71367813 14.47670912 67.71367813 14.47670912 80.99609375 20.62109375 C82.64052687 21.37595057 84.28827438 22.12423193 85.94995117 22.84033203 C107.90942427 32.34521525 128.16912973 45.32299818 147 60 C147.8353125 60.64195312 148.670625 61.28390625 149.53125 61.9453125 C155.353148 66.49597328 160.79015706 71.38894526 166.1953125 76.41796875 C168.42245935 78.46830868 170.67895875 80.43437837 173 82.375 C178.81323163 87.42998402 183.88638661 93.25420006 189 99 C189.4630957 99.51836426 189.92619141 100.03672852 190.40332031 100.57080078 C212.71987013 125.72719995 230.53477213 155.26080838 244 186 C244.51304687 187.16402344 245.02609375 188.32804688 245.5546875 189.52734375 C247.25115163 193.60344271 248.59616985 197.73466555 249.9375 201.9375 C250.97518584 205.06594599 250.97518584 205.06594599 252.44140625 208.25 C254.38564393 212.70234091 255.64145499 217.32572534 256.9375 222 C257.19764893 222.92989746 257.45779785 223.85979492 257.72583008 224.81787109 C258.24714863 226.68623811 258.76631803 228.5552063 259.28320312 230.42480469 C259.89817969 232.63419597 260.52995735 234.83739758 261.171875 237.0390625 C263.79342856 246.29516315 265.33671491 255.57660341 266.70263672 265.08105469 C266.93349266 266.5708147 267.22930447 268.05057225 267.55078125 269.5234375 C268.34349233 273.89368817 268.39886743 278.33126818 268.60546875 282.76171875 C268.64285156 283.49003906 268.68023438 284.21835937 268.71875 284.96875 C268.74904297 285.62294922 268.77933594 286.27714844 268.81054688 286.95117188 C268.96439387 289.0603515 268.96439387 289.0603515 269.50177002 291.33029175 C269.97658467 293.87453164 270.13914016 296.18073685 270.16113281 298.76416016 C270.17074036 299.68347321 270.1803479 300.60278625 270.19024658 301.54995728 C270.1966214 303.02956436 270.1966214 303.02956436 270.203125 304.5390625 C270.20882507 305.57453217 270.21452515 306.61000183 270.22039795 307.67684937 C270.22983916 309.87407414 270.23637844 312.07131301 270.24023438 314.26855469 C270.24982462 317.56472138 270.28080753 320.86023263 270.3125 324.15625 C270.3736997 336.40167941 269.65887081 348.0335017 267.36016846 360.06408691 C266.86681262 362.71588501 266.48710472 365.37981949 266.11328125 368.05078125 C262.91668385 389.4721611 257.32380638 410.61961466 250 431 C249.62617187 432.13308594 249.25234375 433.26617188 248.8671875 434.43359375 C246.01910242 442.8929723 242.35060096 450.74611334 238.22900391 458.63623047 C236.85887997 461.27141918 235.51332129 463.91848942 234.16796875 466.56640625 C220.42758683 493.46470465 203.61773996 517.17306859 183.265625 539.48828125 C181.98229302 540.91100963 180.70737202 542.34174751 179.46118164 543.79711914 C175.20261772 548.75930862 170.71085793 553.34543024 165.9375 557.8125 C165.19363037 558.50899658 164.44976074 559.20549316 163.68334961 559.9230957 C157.08028722 566.0379308 150.22070628 571.63788348 143 577 C141.99380615 577.75893555 141.99380615 577.75893555 140.96728516 578.53320312 C123.2509149 591.87010934 104.36944576 602.67129567 84.60449219 612.67529297 C82.92560881 613.52921322 81.25369635 614.39705048 79.59082031 615.28173828 C72.63627947 618.92061035 65.42666866 621.49018059 58 624 C57.364039 624.21688477 56.728078 624.43376953 56.07284546 624.65722656 C44.12668412 628.7295558 32.15051214 632.60563697 19.7565918 635.05859375 C18.41711739 635.32434204 18.41711739 635.32434204 17.05058289 635.59545898 C16.37389053 635.72895752 15.69719818 635.86245605 15 636 C15.02220612 636.74644775 15.04441223 637.49289551 15.06729126 638.26196289 C15.268297 645.32286826 15.42021892 652.38277119 15.51812172 659.44573975 C15.57015292 663.07656609 15.640612 666.70501494 15.75439453 670.33447266 C15.86367261 673.84250912 15.92296188 677.34827174 15.94877243 680.85787964 C15.97604019 682.83708868 16.05401674 684.81539108 16.13296509 686.79321289 C16.13845325 695.66266025 16.13845325 695.66266025 12.815979 699.56556702 C10.29701005 701.59417947 7.75852446 703.31791895 5 705 C3.46859375 706.23556641 3.46859375 706.23556641 1.90625 707.49609375 C1.1121875 708.13675781 0.318125 708.77742187 -0.5 709.4375 C-1.3146875 710.09621094 -2.129375 710.75492188 -2.96875 711.43359375 C-5 713 -5 713 -7 714 C-7 676.38 -7 638.76 -7 600 C5.375 597.525 5.375 597.525 18 595 C22.53662702 593.81002611 26.93078484 592.62222894 31.375 591.1875 C32.4460498 590.84912109 33.51709961 590.51074219 34.62060547 590.16210938 C50.04679319 585.17744905 64.68234947 578.56707133 79 571 C79.7204248 570.62117676 80.44084961 570.24235352 81.18310547 569.85205078 C100.6537812 559.54006999 118.53719295 546.97806475 134.76171875 532.0546875 C136.87039527 530.11897397 139.01786328 528.24180024 141.1875 526.375 C158.50661197 511.24686002 172.76829757 492.35447279 185 473 C185.59240479 472.07767578 185.59240479 472.07767578 186.19677734 471.13671875 C199.04188327 451.06519766 208.25799303 429.47217407 216 407 C216.27424805 406.2275293 216.54849609 405.45505859 216.83105469 404.65917969 C220.36605929 394.68388329 222.43609685 384.54558692 224.38989258 374.16162109 C224.58607178 373.1195752 224.78225098 372.0775293 224.984375 371.00390625 C225.15678711 370.06361572 225.32919922 369.1233252 225.50683594 368.15454102 C226 366 226 366 227 365 C232.36416517 336.08132427 231.55281563 304.80234911 227.40136719 275.82617188 C227.03792636 273.26705327 226.71859861 270.70727673 226.4140625 268.140625 C225.14392503 258.19334232 222.71228895 248.59589334 220.0625 238.9375 C219.72645752 237.7117627 219.39041504 236.48602539 219.04418945 235.22314453 C217.30493123 229.06819877 215.38259253 223.1127726 212.91772461 217.21020508 C212.07676815 215.18488483 211.3108293 213.1524237 210.578125 211.0859375 C207.3270711 202.00211042 203.48009224 193.45707004 198.99707031 184.91748047 C198.06513488 183.12526184 197.16791048 181.31511285 196.2734375 179.50390625 C166.13667369 119.96056455 110.50783354 72.47742569 47.25 51.625 C44.3590605 50.69434712 41.46609703 49.7704227 38.57177734 48.8503418 C36.20230046 48.06688936 33.88081289 47.21134553 31.5546875 46.30859375 C28.73641332 45.27109721 26.77734246 44.75359333 23.875 44.4375 C20 44 20 44 14 42 C9.38 41.34 4.76 40.68 0 40 C0 26.8 0 13.6 0 0 Z " fill="#B5B7BA" transform="translate(672,290)"/>
<path d="M0 0 C12.87 0 25.74 0 39 0 C40.17183869 4.68735477 41.20934655 8.87858282 41.88671875 13.5703125 C43.05268747 20.80227038 44.90386779 27.80838807 46.8125 34.875 C47.14314453 36.13441406 47.47378906 37.39382813 47.81445312 38.69140625 C51.37094682 51.97535392 55.94349721 64.54675733 61.97705078 76.8984375 C63.07034383 79.14451543 64.14191812 81.40037879 65.21484375 83.65625 C74.23222085 102.38364602 85.11850008 119.69758893 98 136 C98.74507813 136.95777344 99.49015625 137.91554688 100.2578125 138.90234375 C114.31755636 156.56781528 130.6346826 172.83515862 149 186 C149.92981689 186.66660645 149.92981689 186.66660645 150.87841797 187.34667969 C163.70796302 196.47459598 177.04098487 204.70408809 191 212 C191.59393555 212.31324219 192.18787109 212.62648438 192.79980469 212.94921875 C202.00977527 217.78341145 211.12030884 221.70252576 221 225 C222.33649031 225.49149916 223.67040772 225.99013516 225 226.5 C241.43371048 232.66264143 255.24108786 235.85625383 273 240 C273 277.29 273 314.58 273 353 C269.56300029 351.28150014 267.13450521 349.64473179 264.1875 347.25 C263.37667969 346.59515625 262.56585937 345.9403125 261.73046875 345.265625 C260.82941406 344.51796875 259.92835938 343.7703125 259 343 C258.41462463 342.65800568 257.82924927 342.31601135 257.22613525 341.96365356 C253.8596147 339.74666175 252.22749025 338.08530688 251.38496399 334.0657959 C251.18904159 330.31582811 251.21209265 326.60188831 251.31640625 322.8515625 C251.32947632 321.4701082 251.33943385 320.08862126 251.34642029 318.7071228 C251.37303752 315.08621256 251.44169689 311.46729534 251.51934814 307.84716797 C251.59119937 304.14708414 251.62297792 300.44667542 251.65820312 296.74609375 C251.73308112 289.49649114 251.85240948 282.24852573 252 275 C250.93885986 274.83419434 249.87771973 274.66838867 248.78442383 274.49755859 C239.12982769 272.92903812 229.98103233 270.7386226 220.6875 267.625 C218.95016602 267.06425781 218.95016602 267.06425781 217.17773438 266.4921875 C183.85666126 255.56601866 152.86954672 238.12017713 125 217 C124.39623535 216.54334961 123.7924707 216.08669922 123.17041016 215.61621094 C110.68132162 206.12031925 99.45023271 195.53393187 88.3125 184.5 C87.43327881 183.63391113 86.55405762 182.76782227 85.64819336 181.87548828 C79.66294253 175.89755094 74.24823231 169.62993123 69 163 C68.38825928 162.24219238 67.77651855 161.48438477 67.14624023 160.70361328 C59.47260152 151.18791279 52.41399572 141.51907721 46.18554688 130.99755859 C44.9783268 128.96348227 43.74873321 126.94425051 42.515625 124.92578125 C36.48563573 114.96705625 31.19195253 104.70943447 26.1003418 94.24365234 C25.02379679 92.04852286 23.91814758 89.86999151 22.80859375 87.69140625 C21.46280277 85.00550978 20.31805032 82.37978719 19.4375 79.5 C18.57157959 76.70323843 17.62116515 73.96040691 16.5859375 71.22265625 C8.07729172 48.69161575 0 24.21893889 0 0 Z " fill="#A5A5A9" transform="translate(315,649)"/>
<path d="M0 0 C0 13.2 0 26.4 0 40 C-10.72625698 42.1452514 -10.72625698 42.1452514 -15.375 42.8125 C-26.84525752 44.69944651 -38.79899529 47.22440479 -49.47265625 51.9140625 C-52.15378491 53.0660776 -54.87649402 54.06624068 -57.61962891 55.05981445 C-88.37456067 66.25431913 -115.5596139 83.8645138 -139.67578125 105.8984375 C-141.70565015 107.73384837 -143.7770936 109.49381444 -145.875 111.25 C-156.18561155 120.27437832 -164.78402355 131.09290371 -173 142 C-173.78632813 143.02867187 -174.57265625 144.05734375 -175.3828125 145.1171875 C-190.54001355 165.57690773 -204.12982502 188.68618282 -212 213 C-212.46043681 214.34176582 -212.92285972 215.68285092 -213.38671875 217.0234375 C-218.73194283 232.57814191 -223.07770109 247.94245986 -225.65673828 264.2097168 C-226.42484297 269.01266959 -227.41758053 273.3894939 -229 278 C-229.33 280.31 -229.66 282.62 -230 285 C-242.54 285 -255.08 285 -268 285 C-268 271.49011446 -268 271.49011446 -267.1953125 266.60546875 C-267.02386719 265.54779297 -266.85242188 264.49011719 -266.67578125 263.40039062 C-266.49402344 262.34013672 -266.31226563 261.27988281 -266.125 260.1875 C-265.95097656 259.10791016 -265.77695312 258.02832031 -265.59765625 256.91601562 C-264.69734993 251.47749853 -263.53431242 246.29760626 -262 241 C-261.72478966 239.36356236 -261.46035725 237.72529727 -261.203125 236.0859375 C-259.9782096 229.10582623 -257.74368277 222.48046439 -255.47900391 215.78515625 C-254.75471773 213.63897938 -254.046544 211.48796007 -253.33984375 209.3359375 C-250.77755325 201.63070386 -247.89495324 194.26609768 -244.37841797 186.93212891 C-243.12699076 184.27013089 -242.01865191 181.6027714 -240.9609375 178.859375 C-231.63311635 155.06528241 -216.76596705 132.97603192 -201 113 C-200.23300781 112.0203125 -199.46601563 111.040625 -198.67578125 110.03125 C-185.29500721 93.31128818 -170.00431518 77.02840529 -153 64 C-151.69094581 62.97454584 -150.38239053 61.94845462 -149.07421875 60.921875 C-139.99013668 53.83810093 -130.70850089 47.19869075 -121 41 C-120.43297363 40.63535645 -119.86594727 40.27071289 -119.28173828 39.89501953 C-109.58793624 33.68637682 -99.61941796 28.44084751 -89 24 C-87.27067964 23.18782718 -85.54152958 22.37529168 -83.8125 21.5625 C-78.92965938 19.32843319 -73.99343921 17.59476957 -68.8828125 15.9609375 C-66.29645832 15.09881944 -63.82110678 14.12546897 -61.3125 13.0625 C-51.80511666 9.17660665 -41.62739059 6.27289355 -31.51953125 4.46484375 C-28.3257566 3.87560471 -25.16872765 3.14884702 -22 2.4375 C-14.6056283 0.84437095 -7.55853442 0 0 0 Z " fill="#C8CBCE" transform="translate(582,290)"/>
<path d="M0 0 C12.73271642 9.16574976 21.2743645 22.02746335 24.203125 37.5859375 C26.00307326 53.93861658 21.94984478 70.32051269 11.98046875 83.53125 C3.67192724 93.19601936 -5.68484228 98.8777921 -17.796875 102.5859375 C-18.44914063 102.81152344 -19.10140625 103.03710938 -19.7734375 103.26953125 C-33.37614885 107.46611241 -47.52669506 103.92893799 -59.7421875 97.50390625 C-73.6000121 88.80289362 -81.97393867 76.11100942 -86.796875 60.5859375 C-90.36551321 43.81106487 -87.10204161 27.92578363 -77.796875 13.5859375 C-59.62765143 -11.88749656 -25.54065868 -16.66062835 0 0 Z " fill="#010101" transform="translate(658.796875,566.4140625)"/>
<path d="M0 0 C5.62232648 2.24893059 5.62232648 2.24893059 8.48828125 4.609375 C9.11283203 5.11726563 9.73738281 5.62515625 10.38085938 6.1484375 C11.01830078 6.67695313 11.65574219 7.20546875 12.3125 7.75 C13.57838105 8.78773565 14.84531199 9.82419189 16.11328125 10.859375 C16.70752647 11.36850119 17.3017717 11.87762737 17.91402435 12.40218163 C19.90491264 14.05347953 19.90491264 14.05347953 22.09763336 14.94335365 C24.83745236 16.32266371 26.21069785 17.47950634 28 20 C29.22538122 26.38899346 29.01053203 32.74071054 28.90820312 39.22412109 C28.90594595 41.21512765 28.90721435 43.20614087 28.91174316 45.19714355 C28.91403859 50.59802636 28.86700566 55.99748784 28.8111515 61.39804029 C28.76114105 67.04341392 28.75644167 72.68882014 28.74694824 78.3343811 C28.72208319 89.0230345 28.65643365 99.7110333 28.57615232 110.39939845 C28.48673318 122.56850004 28.44274713 134.73763289 28.40258884 146.90698123 C28.31896794 171.93836271 28.17664264 196.96911707 28 222 C18.76 222 9.52 222 0 222 C0 148.74 0 75.48 0 0 Z " fill="#C1C3C6" transform="translate(772,400)"/>
<path d="M0 0 C7.26 0 14.52 0 22 0 C22.02730614 4.06254666 22.04698545 8.12490455 22.0625 12.1875 C22.07087891 13.31865234 22.07925781 14.44980469 22.08789062 15.61523438 C22.12400219 28.29039223 21.05282885 40.14282496 18.1875 52.5 C17.8152832 54.18029297 17.8152832 54.18029297 17.43554688 55.89453125 C15.16949008 65.8928582 12.71046488 76.03735685 8.25 85.3125 C7.734375 86.385 7.21875 87.4575 6.6875 88.5625 C6.130625 89.696875 5.57375 90.83125 5 92 C4.39523046 93.27054654 3.79108524 94.54139041 3.1875 95.8125 C-5.02511287 112.89549131 -15.11426916 127.68858079 -27.91015625 141.6875 C-29.68356841 143.64985514 -31.38150245 145.64661409 -33.0625 147.6875 C-57.49023479 176.35494459 -98.47205943 194.33444187 -135 200 C-135.99 200 -136.98 200 -138 200 C-138 192.74 -138 185.48 -138 178 C-134.6175 177.175 -131.235 176.35 -127.75 175.5 C-81.52125297 163.67327469 -46.86937854 135.21684034 -22 95 C-19.35580313 90.47210535 -17.10491101 85.80147269 -15 81 C-14.48179687 79.85015625 -13.96359375 78.7003125 -13.4296875 77.515625 C-9.38611742 68.04676241 -6.78187756 58.38251735 -4.53173828 48.34716797 C-4.0678117 46.29933042 -3.56636572 44.26006493 -3.05859375 42.22265625 C0.04348937 28.42063425 -0.26588778 14.08288387 0 0 Z " fill="#A7A8AB" transform="translate(804,605)"/>
<path d="M0 0 C4.95706334 2.79398115 8.46499679 5.7613459 10.171875 11.3359375 C10.99279612 16.67192475 10.41207331 20.58607952 7.67578125 25.25 C4.75772041 29.22666335 1.14274028 31.59314563 -3.5625 32.9375 C-8.81668785 33.41515344 -12.12955964 32.82854806 -16.5625 29.9375 C-20.45594585 25.86707933 -23.51594443 22.40007029 -23.59375 16.61328125 C-23.2619823 11.06446643 -22.4586264 7.13332843 -18.5625 2.9375 C-12.47076284 -1.3002302 -7.18962142 -2.14427306 0 0 Z " fill="#D3D6D9" transform="translate(633.5625,223.0625)"/>
<path d="M0 0 C4.09613637 1.80992072 6.73195328 4.1359204 9 8 C9.76554353 11.83480603 9.89263887 15.33468163 8.01171875 18.84375 C5.72101663 21.73726847 3.40090005 23.64973542 0 25 C-4.78779839 25.33403245 -8.15021351 24.66898085 -11.9375 21.6875 C-15.29116737 17.31756979 -16.67626608 14.6355507 -16 9 C-12.22558127 1.8705424 -8.11182548 -0.86912416 0 0 Z " fill="#D6DADD" transform="translate(630,181)"/>
<path d="M0 0 C0.66 0 1.32 0 2 0 C2 20.13 2 40.26 2 61 C0.68 61.66 -0.64 62.32 -2 63 C-1.9278125 62.32839844 -1.855625 61.65679688 -1.78125 60.96484375 C-0.73011021 49.65049188 -0.92411855 38.3515043 -1 27 C-1.02664415 22.95833606 -1.04657305 18.91671873 -1.0625 14.875 C-1.07079834 13.95726807 -1.07909668 13.03953613 -1.08764648 12.09399414 C-1.10367295 7.92828525 -1.07000961 4.06098135 0 0 Z " fill="#8F9093" transform="translate(685,926)"/>
<path d="M0 0 C1.10469812 3.36110278 0.87889184 5.74048889 0.1875 9.1875 C0.01605469 10.06792969 -0.15539062 10.94835937 -0.33203125 11.85546875 C-1.19324464 15.90971892 -2.10088585 19.95398632 -3 24 C-15.21 24 -27.42 24 -40 24 C-40 23.67 -40 23.34 -40 23 C-32.68341683 21.91165825 -25.38723272 21.67542038 -18 21.4375 C-16.74832031 21.39431641 -15.49664062 21.35113281 -14.20703125 21.30664062 C-11.13812931 21.20122033 -8.06907775 21.10017129 -5 21 C-4.34 16.71 -3.68 12.42 -3 8 C-2.34 8 -1.68 8 -1 8 C-1.495 5.525 -1.495 5.525 -2 3 C-1.34 3 -0.68 3 0 3 C0 2.01 0 1.02 0 0 Z " fill="#BCBEC2" transform="translate(355,551)"/>
<path d="M0 0 C0.99 0 1.98 0 3 0 C3 28.38 3 56.76 3 86 C1.35 85.01 -0.3 84.02 -2 83 C-1.26852753 82.48857201 -1.26852753 82.48857201 -0.52227783 81.96681213 C1.746174 79.03592889 1.4022256 76.08535718 1.35644531 72.53100586 C1.35951187 71.39399986 1.35951187 71.39399986 1.36264038 70.23402405 C1.36564963 67.72738558 1.3471685 65.22140407 1.328125 62.71484375 C1.3250677 60.97514509 1.32319136 59.23544399 1.32244873 57.4957428 C1.31784488 53.84984978 1.30341505 50.20417754 1.28125 46.55834961 C1.2529466 41.8784135 1.24203648 37.19865122 1.2375679 32.51863766 C1.23341685 28.92678581 1.22360235 25.3349693 1.21169281 21.74313545 C1.2059848 20.01710863 1.20122785 18.29107839 1.19742584 16.56504631 C1.19057246 14.15650294 1.17694497 11.74809872 1.16113281 9.33959961 C1.16001495 8.62214569 1.15889709 7.90469177 1.15774536 7.16549683 C1.17594792 3.45837036 1.17594792 3.45837036 0 0 Z " fill="#9F9FA1" transform="translate(585,773)"/>
<path d="M0 0 C3.81296025 0.5892602 6.6400866 1.69566616 9.9921875 3.58984375 C10.93819824 4.12246826 11.88420898 4.65509277 12.85888672 5.20385742 C13.8542041 5.77595947 14.84952148 6.34806152 15.875 6.9375 C17.40471436 7.81015503 17.40471436 7.81015503 18.96533203 8.70043945 C25.04345305 12.201372 31.03128799 15.80703557 36.875 19.6875 C37.4922998 20.09669678 38.10959961 20.50589355 38.74560547 20.92749023 C42.86687754 23.73375508 42.86687754 23.73375508 44 26 C39.61703444 25.51300383 37.96816352 24.16604109 35 21 C34.01 20.67 33.02 20.34 32 20 C32 19.34 32 18.68 32 18 C31.278125 17.9175 30.55625 17.835 29.8125 17.75 C26.42223285 16.84592876 24.68819336 15.21775952 22 13 C19.3205355 11.75983331 19.3205355 11.75983331 17 11 C17 10.34 17 9.68 17 9 C14.03 8.505 14.03 8.505 11 8 C11 7.34 11 6.68 11 6 C9.68 6 8.36 6 7 6 C7 5.34 7 4.68 7 4 C5.824375 3.7834375 5.824375 3.7834375 4.625 3.5625 C2 3 2 3 0 2 C0 1.34 0 0.68 0 0 Z " fill="#D0D2D5" transform="translate(764,317)"/>
<path d="M0 0 C7.34238322 0.48156602 14.11726244 1.87444969 21.1875 3.875 C22.13302734 4.13152344 23.07855469 4.38804687 24.05273438 4.65234375 C29.23915671 6.09080792 34.11327143 7.74250713 39 10 C38.34 10.66 37.68 11.32 37 12 C36.01 11.67 35.02 11.34 34 11 C34 10.34 34 9.68 34 9 C33.01 9.33 32.02 9.66 31 10 C29.32332564 9.35891863 27.65910004 8.68528045 26 8 C24.50522414 7.64397157 23.00449984 7.31239615 21.5 7 C18.14643764 6.29925563 15.18191765 5.27276706 12 4 C10.68 4 9.36 4 8 4 C8 3.34 8 2.68 8 2 C6.68 2.33 5.36 2.66 4 3 C4 2.34 4 1.68 4 1 C2.68 0.67 1.36 0.34 0 0 Z " fill="#D8DADD" transform="translate(694,294)"/>
<path d="M0 0 C6.6 0 13.2 0 20 0 C19.67 0.99 19.34 1.98 19 3 C13.39 3 7.78 3 2 3 C1.67 7.95 1.34 12.9 1 18 C0.67 18 0.34 18 0 18 C0 12.06 0 6.12 0 0 Z " fill="#C3C4C6" transform="translate(617,271)"/>
<path d="M0 0 C2.31 0.33 4.62 0.66 7 1 C6.360625 1.309375 5.72125 1.61875 5.0625 1.9375 C3.06389179 2.8345163 3.06389179 2.8345163 2 4 C1.92467759 5.77195969 1.91687527 7.54687256 1.9375 9.3203125 C1.94523438 10.4134375 1.95296875 11.5065625 1.9609375 12.6328125 C1.98671704 14.93750295 2.01275332 17.24219054 2.0390625 19.546875 C2.0784182 25.14850367 2.02292948 30.48577078 1 36 C0.67 36 0.34 36 0 36 C0 24.12 0 12.24 0 0 Z " fill="#D9DDE0" transform="translate(673,290)"/>
<path d="M0 0 C0.66 0.99 1.32 1.98 2 3 C-1.96 6.96 -5.92 10.92 -10 15 C-10.66 14.34 -11.32 13.68 -12 13 C-11.30132813 12.31292969 -10.60265625 11.62585938 -9.8828125 10.91796875 C-8.97273437 10.01691406 -8.06265625 9.11585938 -7.125 8.1875 C-6.22007812 7.29417969 -5.31515625 6.40085937 -4.3828125 5.48046875 C-1.90168486 3.04361667 -1.90168486 3.04361667 0 0 Z " fill="#9C9DA0" transform="translate(761,729)"/>
<path d="M0 0 C2.29403245 6.94717627 -0.89622662 15.23787129 -3 22 C-3.66 21.67 -4.32 21.34 -5 21 C-4.34 16.71 -3.68 12.42 -3 8 C-2.34 8 -1.68 8 -1 8 C-1.33 6.35 -1.66 4.7 -2 3 C-1.34 3 -0.68 3 0 3 C0 2.01 0 1.02 0 0 Z " fill="#A5A7A9" transform="translate(355,551)"/>
<path d="M0 0 C0.99 0.33 1.98 0.66 3 1 C-0.3 4.3 -3.6 7.6 -7 11 C-7.99 10.67 -8.98 10.34 -10 10 C-6.7 6.7 -3.4 3.4 0 0 Z " fill="#C1C4C7" transform="translate(418,363)"/>
<path d="M0 0 C4.02573607 0.63359042 6.84796544 2.68809365 10.1875 4.9375 C11.25355469 5.64777344 12.31960938 6.35804688 13.41796875 7.08984375 C16 9 16 9 17 11 C12.61703444 10.51300383 10.96816352 9.16604109 8 6 C7.01 5.67 6.02 5.34 5 5 C5 4.34 5 3.68 5 3 C3.35 2.67 1.7 2.34 0 2 C0 1.34 0 0.68 0 0 Z " fill="#C9CBCD" transform="translate(791,332)"/>
<path d="M0 0 C4.455 0.99 4.455 0.99 9 2 C9 2.66 9 3.32 9 4 C10.32 4.33 11.64 4.66 13 5 C13 5.66 13 6.32 13 7 C3.40546697 4.29384966 3.40546697 4.29384966 0 0 Z " fill="#C2C4C7" transform="translate(730,343)"/>
<path d="M0 0 C0.33 0.99 0.66 1.98 1 3 C1.66 3 2.32 3 3 3 C3.36504603 4.58086048 3.71660506 6.16483907 4.0625 7.75 C4.25972656 8.63171875 4.45695312 9.5134375 4.66015625 10.421875 C4.99825872 12.98679028 4.81158635 14.57091639 4 17 C1.90429574 11.30601106 0.54981916 6.04801071 0 0 Z " fill="#AFB0B4" transform="translate(322,685)"/>
<path d="M0 0 C0.66 0.33 1.32 0.66 2 1 C-4.92938497 9.81548975 -4.92938497 9.81548975 -11 11 C-7.33333333 7.33333333 -3.66666667 3.66666667 0 0 Z " fill="#171718" transform="translate(766,756)"/>
<path d="M0 0 C0.66 0.99 1.32 1.98 2 3 C1.34 3 0.68 3 0 3 C-0.12375 3.721875 -0.2475 4.44375 -0.375 5.1875 C-1.000475 8.00213749 -1.7099631 10.4199262 -3 13 C-3.99 13.33 -4.98 13.66 -6 14 C-4.50829734 9.0276578 -2.39542583 4.58154261 0 0 Z " fill="#929496" transform="translate(873,734)"/>
<path d="M0 0 C0.66 0.66 1.32 1.32 2 2 C1.67582137 5.80909895 1.14418558 7.78372163 -1 11 C-1.66 11 -2.32 11 -3 11 C-2.69078116 9.54096742 -2.37751201 8.08279278 -2.0625 6.625 C-1.88847656 5.81289063 -1.71445312 5.00078125 -1.53515625 4.1640625 C-1 2 -1 2 0 0 Z " fill="#AEB1B4" transform="translate(332,490)"/>
<path d="M0 0 C5.78450072 -0.34707004 9.96563531 -0.27233705 15 3 C15.33 3.66 15.66 4.32 16 5 C10.72 3.68 5.44 2.36 0 1 C0 0.67 0 0.34 0 0 Z " fill="#97989A" transform="translate(701,335)"/>
<path d="M0 0 C0.66 0.99 1.32 1.98 2 3 C1.42578125 5.2265625 1.42578125 5.2265625 0.3125 7.625 C-0.04199219 8.42164063 -0.39648438 9.21828125 -0.76171875 10.0390625 C-2 12 -2 12 -5 13 C-4.54554036 11.58208592 -4.08625056 10.16571954 -3.625 8.75 C-3.24214844 7.56664062 -3.24214844 7.56664062 -2.8515625 6.359375 C-2.04826333 4.13372042 -1.10288338 2.09068328 0 0 Z " fill="#A2A4A7" transform="translate(465,538)"/>
<path d="M0 0 C3.57011026 3.732388 4.10913442 8.0949989 5 13 C2.12614955 9.57874946 0.54115394 6.16111563 -1 2 C-0.67 1.34 -0.34 0.68 0 0 Z " fill="#9D9EA2" transform="translate(348,752)"/>
<path d="M0 0 C-1.78810766 0.69670416 -3.58062052 1.38211189 -5.375 2.0625 C-6.37273438 2.44535156 -7.37046875 2.82820313 -8.3984375 3.22265625 C-11 4 -11 4 -13 3 C-11.73102432 0.46204864 -10.78585978 0.27198938 -8.1875 -0.75 C-7.50042969 -1.03359375 -6.81335938 -1.3171875 -6.10546875 -1.609375 C-3.42425634 -2.10681701 -2.27247745 -1.40944669 0 0 Z " fill="#B0B3B5" transform="translate(536,341)"/>
<path d="M0 0 C1.21236328 0.02707031 1.21236328 0.02707031 2.44921875 0.0546875 C3.37154297 0.08949219 3.37154297 0.08949219 4.3125 0.125 C2.8125 1.6875 2.8125 1.6875 0.3125 3.125 C-2.46187543 3.09323234 -4.94036467 2.62864148 -7.6875 2.125 C-4.48369983 -0.01086678 -3.66810033 -0.10632175 0 0 Z " fill="#A7A8AA" transform="translate(612.6875,542.875)"/>
<path d="M0 0 C-0.33 0.66 -0.66 1.32 -1 2 C-3.06265822 2.3911938 -5.09443267 2.50674519 -7.1875 2.65625 C-7.785625 2.7696875 -8.38375 2.883125 -9 3 C-9.33 3.66 -9.66 4.32 -10 5 C-10.66 4.34 -11.32 3.68 -12 3 C-10.3789897 2.30314502 -8.75303934 1.61777139 -7.125 0.9375 C-6.22007812 0.55464844 -5.31515625 0.17179687 -4.3828125 -0.22265625 C-2 -1 -2 -1 0 0 Z " fill="#ABACAD" transform="translate(514,307)"/>
<path d="M0 0 C-1.76956458 2.14210449 -2.87575652 2.96060573 -5.5625 3.8125 C-6.7690625 3.9053125 -6.7690625 3.9053125 -8 4 C-8.66 3.34 -9.32 2.68 -10 2 C-8.71211992 1.46987262 -7.41953322 0.9511671 -6.125 0.4375 C-5.40570312 0.14746094 -4.68640625 -0.14257812 -3.9453125 -0.44140625 C-2 -1 -2 -1 0 0 Z " fill="#858587" transform="translate(723,876)"/>
<path d="M0 0 C0 0.66 0 1.32 0 2 C-4.95 3.485 -4.95 3.485 -10 5 C-9.67 4.01 -9.34 3.02 -9 2 C-3.21052632 0 -3.21052632 0 0 0 Z " fill="#9D9EA0" transform="translate(700,795)"/>
<path d="M0 0 C0.66 0.66 1.32 1.32 2 2 C1.77256695 4.95662966 1.38764062 6.55033688 -0.5625 8.8125 C-1.036875 9.204375 -1.51125 9.59625 -2 10 C-1.125 2.25 -1.125 2.25 0 0 Z " fill="#8F9092" transform="translate(893,681)"/>
<path d="M0 0 C0.99 0 1.98 0 3 0 C2.67 2.97 2.34 5.94 2 9 C-0.29013653 5.5647952 -0.17842973 4.014669 0 0 Z " fill="#B3B5B9" transform="translate(315,649)"/>
<path d="M0 0 C-0.33 0.99 -0.66 1.98 -1 3 C-2.65 3.33 -4.3 3.66 -6 4 C-6.33 3.01 -6.66 2.02 -7 1 C-4 0 -4 0 0 0 Z " fill="#909194" transform="translate(689,778)"/>
<path d="M0 0 C-1.6875 1.5625 -1.6875 1.5625 -4 3 C-6.75 2.6875 -6.75 2.6875 -9 2 C-4.13793103 -1.24137931 -4.13793103 -1.24137931 0 0 Z " fill="#8B8B8D" transform="translate(710,771)"/>
<path d="M0 0 C0.66 0.33 1.32 0.66 2 1 C0.35 2.65 -1.3 4.3 -3 6 C-3.99 5.67 -4.98 5.34 -6 5 C-4.02 3.35 -2.04 1.7 0 0 Z " fill="#97969A" transform="translate(740,749)"/>
<path d="M0 0 C0.66 0.99 1.32 1.98 2 3 C0.7260411 5.03833424 -0.61061923 7.03852126 -2 9 C-2.66 9 -3.32 9 -4 9 C-2.80100302 5.9168649 -1.52299523 2.93720508 0 0 Z " fill="#B3B6B9" transform="translate(358,436)"/>
</svg>
